<mxfile host="app.diagrams.net" modified="2023-04-27T19:23:18.962Z" agent="Mozilla/5.0 (X11; Ubuntu; Linux x86_64; rv:109.0) Gecko/20100101 Firefox/112.0" version="21.2.3" etag="7KgMH5P-tAICr_SCxI1Q" type="github">
  <diagram name="Page-1" id="CIQpKTDHTxv0lwT6xIY5">
    <mxGraphModel>
      <root>
        <mxCell id="0" />
        <mxCell id="1" parent="0" />
      </root>
    </mxGraphModel>
  </diagram>
</mxfile>
